<svg width="271" height="95" viewBox="0 0 271 95" fill="none" xmlns="http://www.w3.org/2000/svg">
<path d="M41.08 90.152C37.88 84.968 36.28 73.224 36.28 54.92L36.376 49.064C36.376 48.68 36.472 48.392 36.664 48.2C36.856 48.008 37.048 47.912 37.24 47.912L37.528 47.816C42.84 47.24 47.768 45.096 52.312 41.384C56.92 37.608 59.224 33.288 59.224 28.424C59.224 26.504 58.712 24.84 57.688 23.432C56.728 21.96 55.416 20.872 53.752 20.168C52.152 19.4 50.488 18.856 48.76 18.536C47.096 18.152 45.432 17.96 43.768 17.96C40.824 17.96 37.912 18.44 35.032 19.4C32.152 20.36 29.624 21.928 27.448 24.104C25.272 26.28 24.184 28.84 24.184 31.784C24.184 33.576 24.696 35.368 25.72 37.16C25.976 37.8 26.104 38.216 26.104 38.408C26.104 38.792 25.912 38.984 25.528 38.984C24.952 38.984 24.216 38.696 23.32 38.12C19.352 35.752 17.368 32.904 17.368 29.576C17.368 25.224 20.024 21.8 25.336 19.304C30.712 16.808 37.016 15.56 44.248 15.56C46.68 15.56 49.048 15.72 51.352 16.04C53.72 16.36 56.248 16.904 58.936 17.672C61.624 18.44 63.768 19.688 65.368 21.416C67.032 23.08 67.864 25.128 67.864 27.56C67.864 30.824 66.424 34.024 63.544 37.16C60.728 40.296 57.592 42.824 54.136 44.744C50.68 46.664 47.416 48.008 44.344 48.776C43.896 49.096 43.672 49.448 43.672 49.832C43.672 52.136 43.736 54.76 43.864 57.704C43.992 60.584 44.248 64.648 44.632 69.896C45.08 75.08 45.88 79.784 47.032 84.008C48.248 88.168 49.752 91.08 51.544 92.744C51.864 93.064 52.024 93.352 52.024 93.608C52.024 94.12 51.224 94.376 49.624 94.376C47.768 94.376 46.136 94.024 44.728 93.32C43.32 92.616 42.36 91.976 41.848 91.4C41.4 90.824 41.144 90.408 41.08 90.152ZM19.288 73.736C17.944 76.808 16.472 79.592 14.872 82.088C13.272 84.584 11.8 86.536 10.456 87.944C9.112 89.352 7.864 90.536 6.712 91.496C5.56 92.456 4.632 93.096 3.928 93.416L2.968 93.896C2.584 94.088 2.2 94.184 1.816 94.184C1.112 94.184 0.76 93.768 0.76 92.936L1.048 91.784C1.688 89.992 3.864 85.48 7.576 78.248C11.352 70.952 14.904 64.36 18.232 58.472C21.304 52.968 24.248 47.848 27.064 43.112C29.944 38.312 32.024 34.92 33.304 32.936L35.32 29.864C36.92 27.688 38.552 26.024 40.216 24.872C41.88 23.72 43.224 23.144 44.248 23.144C44.952 23.144 45.304 23.4 45.304 23.912C45.304 24.296 45.048 24.968 44.536 25.928C44.088 26.696 42.296 29.896 39.16 35.528C36.088 41.096 32.408 47.912 28.12 55.976C23.896 63.976 20.952 69.896 19.288 73.736ZM77.4625 56.456C78.2305 54.856 78.6145 53.448 78.6145 52.232C78.6145 51.208 78.2945 50.696 77.6545 50.696C77.2705 50.696 76.8225 50.824 76.3105 51.08C75.8625 51.272 75.5105 51.496 75.2545 51.752L74.7745 52.136C72.7905 53.864 70.2945 57.032 67.2865 61.64C64.3425 66.184 62.8705 69.096 62.8705 70.376C62.8705 70.632 62.9345 70.76 63.0625 70.76C63.4465 70.76 64.2785 70.44 65.5585 69.8C66.9025 69.16 68.7905 67.656 71.2225 65.288C73.7185 62.92 75.7985 59.976 77.4625 56.456ZM73.1425 78.44C76.5345 75.304 81.3985 70.12 87.7345 62.888C87.9265 62.696 88.0865 62.6 88.2145 62.6C88.3425 62.6 88.4065 62.728 88.4065 62.984C88.4065 64.2 87.9265 65.384 86.9665 66.536C82.2305 71.784 78.0385 76.168 74.3905 79.688C71.7025 82.376 68.5025 84.968 64.7905 87.464C61.0785 89.896 58.0065 91.112 55.5745 91.112C52.6305 91.112 51.1585 89.064 51.1585 84.968C51.1585 78.184 53.6545 71.08 58.6465 63.656C63.7025 56.232 69.5265 51.208 76.1185 48.584C78.8705 47.432 81.3665 46.856 83.6065 46.856C86.1025 46.856 87.3505 47.848 87.3505 49.832C87.3505 53.544 84.7265 57.8 79.4785 62.6C74.2305 67.4 68.3425 71.048 61.8145 73.544C61.5585 73.608 61.3345 73.832 61.1425 74.216C60.1825 76.84 59.7025 79.176 59.7025 81.224C59.7025 83.528 60.5665 84.68 62.2945 84.68C65.0465 84.68 68.6625 82.6 73.1425 78.44ZM106.561 82.952C101.249 87.816 97.601 90.248 95.617 90.248C94.721 90.248 94.273 89.736 94.273 88.712C94.273 87.432 94.817 85.48 95.905 82.856C97.057 80.232 98.209 77.928 99.361 75.944L101.089 72.968C101.345 72.52 101.473 72.232 101.473 72.104C101.473 71.976 101.409 71.912 101.281 71.912C101.025 71.912 100.545 72.264 99.841 72.968C97.921 75.08 95.713 77.352 93.217 79.784C90.785 82.152 88.801 84.008 87.265 85.352L85.057 87.272C82.561 89.192 80.641 90.152 79.297 90.152C77.889 90.152 77.185 89.064 77.185 86.888C77.185 85.8 77.505 84.136 78.145 81.896C78.721 79.656 79.169 78.152 79.489 77.384C80.961 73.8 82.785 70.312 84.961 66.92C87.201 63.528 89.825 60.296 92.833 57.224C95.841 54.088 99.329 51.56 103.297 49.64C107.329 47.72 111.489 46.76 115.777 46.76C119.361 46.76 121.153 47.304 121.153 48.392C121.153 49.032 120.353 49.352 118.753 49.352C112.865 49.352 107.329 51.88 102.145 56.936C97.025 61.928 92.865 67.688 89.665 74.216C88.769 76.008 88.321 77.512 88.321 78.728C88.321 79.432 88.545 79.784 88.993 79.784C89.761 79.784 90.753 79.24 91.969 78.152C92.737 77.448 93.761 76.52 95.041 75.368C96.385 74.216 98.529 72.008 101.473 68.744C104.417 65.48 106.753 62.44 108.481 59.624C108.737 59.112 109.121 58.504 109.633 57.8C110.209 57.096 111.265 56.168 112.801 55.016C114.337 53.8 115.873 53.192 117.409 53.192C118.241 53.192 118.657 53.416 118.657 53.864C118.657 53.992 118.561 54.216 118.369 54.536C118.113 55.048 117.377 56.328 116.161 58.376C115.009 60.424 113.921 62.376 112.897 64.232C111.873 66.024 110.785 68.008 109.633 70.184C108.481 72.296 107.553 74.12 106.849 75.656C106.209 77.192 105.889 78.216 105.889 78.728C105.889 79.112 106.049 79.304 106.369 79.304C107.329 79.304 109.665 77.448 113.377 73.736C116.193 70.792 119.489 67.176 123.265 62.888C123.457 62.696 123.617 62.6 123.745 62.6C123.873 62.6 123.937 62.728 123.937 62.984C123.937 64.2 123.457 65.384 122.497 66.536C116.225 73.512 110.913 78.984 106.561 82.952ZM142.092 42.248C146.636 39.048 150.7 35.432 154.284 31.4C157.932 27.304 160.684 23.56 162.54 20.168C164.46 16.712 165.9 13.736 166.86 11.24C167.82 8.744 168.3 6.952 168.3 5.86399C168.3 5.224 168.076 4.904 167.628 4.904C166.732 4.904 165.644 5.54399 164.364 6.82399C161.932 9.256 159.18 12.776 156.108 17.384C153.036 21.992 150.54 25.96 148.62 29.288C146.764 32.552 144.332 36.936 141.324 42.44C141.58 42.44 141.836 42.376 142.092 42.248ZM131.82 74.504C134.508 71.816 138.06 67.944 142.476 62.888C142.668 62.696 142.828 62.6 142.956 62.6C143.084 62.6 143.148 62.728 143.148 62.984C143.148 64.2 142.668 65.384 141.708 66.536C136.972 71.784 132.78 76.168 129.132 79.688C121.132 87.24 116.044 91.016 113.868 91.016C112.908 91.016 112.428 90.344 112.428 89C112.428 88.296 112.524 87.528 112.716 86.696C112.844 85.864 113.1 84.968 113.484 84.008C113.868 82.984 114.188 82.152 114.444 81.512C114.764 80.808 115.18 79.848 115.692 78.632C116.268 77.352 116.652 76.488 116.844 76.04C118.636 72.008 124.14 61.384 133.356 44.168C145.964 21.192 157.548 7.08 168.108 1.832C169.644 1.064 171.18 0.679998 172.716 0.679998C174.508 0.679998 175.404 1.512 175.404 3.17599C175.404 7.016 174.092 11.24 171.468 15.848C168.844 20.392 165.644 24.584 161.868 28.424C158.092 32.264 154.38 35.624 150.732 38.504C147.148 41.384 144.044 43.56 141.42 45.032C141.036 45.16 140.684 45.448 140.364 45.896C137.548 50.44 134.796 55.336 132.108 60.584C129.42 65.768 127.404 69.864 126.06 72.872L124.14 77.288C123.82 78.248 123.66 78.888 123.66 79.208C123.66 79.784 123.884 80.072 124.332 80.072C125.612 80.072 128.108 78.216 131.82 74.504ZM146.623 79.688C139.135 86.728 134.335 90.248 132.223 90.248C131.135 90.248 130.591 89.512 130.591 88.04C130.591 86.568 131.167 84.424 132.319 81.608C133.471 78.792 134.623 76.328 135.775 74.216L137.503 71.144C142.367 62.632 146.047 56.52 148.543 52.808C149.631 51.208 151.007 49.864 152.671 48.776C154.399 47.624 155.999 47.048 157.471 47.048C157.983 47.048 158.239 47.272 158.239 47.72C158.239 48.04 158.015 48.648 157.567 49.544C156.799 50.952 154.911 54.312 151.903 59.624C148.895 64.936 147.103 68.136 146.527 69.224C143.903 73.832 142.591 76.904 142.591 78.44C142.591 79.016 142.783 79.304 143.167 79.304C143.807 79.304 145.855 77.704 149.311 74.504C151.999 71.816 155.551 67.944 159.967 62.888C160.159 62.696 160.319 62.6 160.447 62.6C160.575 62.6 160.639 62.728 160.639 62.984C160.639 64.2 160.159 65.384 159.199 66.536C154.463 71.784 150.271 76.168 146.623 79.688ZM159.391 41.576C157.791 41.576 156.991 40.616 156.991 38.696C156.991 36.904 157.663 35.112 159.007 33.32C160.351 31.464 161.823 30.536 163.423 30.536C165.343 30.536 166.303 31.624 166.303 33.8C166.303 35.592 165.567 37.352 164.095 39.08C162.623 40.744 161.055 41.576 159.391 41.576ZM173.469 78.056C172.317 81.192 170.493 83.848 167.997 86.024C165.501 88.136 163.165 89.576 160.989 90.344C158.877 91.112 156.957 91.496 155.229 91.496C150.557 91.496 148.22 89.672 148.22 86.024C148.22 82.312 150.268 78.952 154.365 75.944C156.285 74.536 158.365 73.608 160.605 73.16C160.925 73.16 161.085 73.288 161.085 73.544C161.085 73.672 161.021 73.8 160.893 73.928C159.293 75.144 157.757 77.032 156.285 79.592C154.877 82.152 154.173 84.392 154.173 86.312C154.173 88.232 154.973 89.192 156.573 89.192C157.853 89.192 159.101 88.68 160.317 87.656C161.597 86.568 162.557 85.48 163.197 84.392L164.157 82.856C165.437 80.808 166.493 77.544 167.325 73.064C168.221 68.584 168.797 64.616 169.053 61.16L169.341 55.976C169.341 55.464 169.245 55.208 169.053 55.208L168.669 55.4L159.165 66.536C158.461 67.368 157.981 67.784 157.725 67.784C157.405 67.784 157.245 67.56 157.245 67.112C157.245 66.28 157.469 65.64 157.917 65.192L158.781 64.136C166.077 55.944 170.237 50.984 171.261 49.256C172.221 47.784 173.629 46.504 175.484 45.416C177.277 44.392 179.389 43.88 181.821 43.88C182.461 43.88 182.781 44.136 182.781 44.648C182.781 44.968 182.525 45.256 182.013 45.512C181.821 45.576 181.565 45.736 181.245 45.992C180.989 46.184 180.477 46.696 179.709 47.528C179.005 48.36 178.365 49.32 177.789 50.408C177.213 51.496 176.701 53.032 176.253 55.016C175.805 56.936 175.581 59.08 175.581 61.448C175.581 68.808 174.877 74.344 173.469 78.056ZM231.207 74.504C233.895 71.816 237.447 67.944 241.863 62.888C242.055 62.696 242.215 62.6 242.343 62.6C242.471 62.6 242.535 62.728 242.535 62.984C242.535 64.2 242.055 65.384 241.095 66.536C236.359 71.784 232.167 76.168 228.519 79.688C220.967 86.728 216.007 90.248 213.639 90.248C212.615 90.248 212.103 89.64 212.103 88.424C212.103 87.208 212.743 85.192 214.023 82.376C215.367 79.56 216.679 77 217.959 74.696C219.303 72.392 220.967 69.576 222.951 66.248C224.999 62.92 226.087 61.128 226.215 60.872C227.367 59.016 227.943 57.832 227.943 57.32C227.943 57 227.783 56.84 227.463 56.84L226.119 57.32C223.175 59.432 219.655 62.728 215.559 67.208C211.463 71.624 208.103 75.496 205.479 78.824L201.543 83.912C198.599 88.136 195.719 90.248 192.903 90.248C192.071 90.248 191.655 89.992 191.655 89.48C191.655 88.904 192.263 87.4 193.479 84.968C194.695 82.472 195.911 80.136 197.127 77.96L198.951 74.696C199.399 73.8 200.487 71.88 202.215 68.936C204.007 65.928 205.479 63.368 206.631 61.256C207.847 59.08 208.455 57.736 208.455 57.224C208.455 56.904 208.327 56.744 208.071 56.744L206.727 57.32C203.719 59.432 200.167 62.728 196.071 67.208C191.975 71.624 188.647 75.496 186.087 78.824L182.151 83.912C179.143 88.072 176.262 90.152 173.51 90.152C172.678 90.152 172.262 89.928 172.262 89.48C172.262 88.904 172.87 87.4 174.086 84.968C175.302 82.472 176.519 80.136 177.735 77.96L179.559 74.696L188.871 58.184C190.407 55.304 192.263 52.744 194.439 50.504C196.615 48.2 198.887 47.048 201.255 47.048C201.767 47.048 202.023 47.272 202.023 47.72C202.023 48.104 201.639 48.936 200.871 50.216C200.167 51.432 199.111 53.16 197.703 55.4C196.359 57.576 195.207 59.592 194.247 61.448C193.671 62.536 192.967 63.784 192.135 65.192C191.367 66.536 190.727 67.688 190.215 68.648C189.703 69.544 189.351 70.184 189.159 70.568C188.967 70.952 188.871 71.24 188.871 71.432C188.871 71.56 188.935 71.624 189.062 71.624C189.255 71.624 189.575 71.4 190.023 70.952C191.239 69.544 192.807 67.784 194.727 65.672C196.711 63.56 200.039 60.392 204.711 56.168C209.383 51.88 213.223 49 216.231 47.528C216.871 47.208 217.511 47.048 218.151 47.048C219.047 47.048 219.495 47.496 219.495 48.392C219.495 50.056 217.607 54.376 213.831 61.352C213.511 61.928 212.839 63.048 211.815 64.712C210.855 66.376 210.023 67.816 209.319 69.032C208.679 70.248 208.359 71.016 208.359 71.336C208.359 71.528 208.423 71.624 208.551 71.624C208.743 71.624 209.063 71.4 209.511 70.952C210.727 69.544 212.295 67.784 214.215 65.672C216.199 63.56 219.495 60.392 224.103 56.168C228.775 51.88 232.615 49 235.623 47.528C236.391 47.208 237.063 47.048 237.639 47.048C238.599 47.048 239.079 47.496 239.079 48.392C239.079 48.648 238.951 49.224 238.695 50.12C238.439 50.952 237.703 52.712 236.487 55.4C235.271 58.024 233.671 60.936 231.687 64.136C226.823 71.624 224.391 76.328 224.391 78.248C224.391 78.824 224.583 79.112 224.967 79.112C226.055 79.112 228.135 77.576 231.207 74.504ZM259.15 56.456C259.918 54.856 260.302 53.448 260.302 52.232C260.302 51.208 259.982 50.696 259.342 50.696C258.958 50.696 258.51 50.824 257.998 51.08C257.55 51.272 257.198 51.496 256.942 51.752L256.462 52.136C254.478 53.864 251.982 57.032 248.974 61.64C246.03 66.184 244.558 69.096 244.558 70.376C244.558 70.632 244.622 70.76 244.75 70.76C245.134 70.76 245.966 70.44 247.246 69.8C248.59 69.16 250.478 67.656 252.91 65.288C255.406 62.92 257.486 59.976 259.15 56.456ZM254.83 78.44C258.222 75.304 263.086 70.12 269.422 62.888C269.614 62.696 269.774 62.6 269.902 62.6C270.03 62.6 270.094 62.728 270.094 62.984C270.094 64.2 269.614 65.384 268.654 66.536C263.918 71.784 259.726 76.168 256.078 79.688C253.39 82.376 250.19 84.968 246.478 87.464C242.766 89.896 239.694 91.112 237.262 91.112C234.318 91.112 232.846 89.064 232.846 84.968C232.846 78.184 235.342 71.08 240.334 63.656C245.39 56.232 251.214 51.208 257.806 48.584C260.558 47.432 263.054 46.856 265.294 46.856C267.79 46.856 269.038 47.848 269.038 49.832C269.038 53.544 266.414 57.8 261.166 62.6C255.918 67.4 250.03 71.048 243.502 73.544C243.246 73.608 243.022 73.832 242.83 74.216C241.87 76.84 241.39 79.176 241.39 81.224C241.39 83.528 242.254 84.68 243.982 84.68C246.734 84.68 250.35 82.6 254.83 78.44Z" fill="black"/>
</svg>
